<svg width="19" height="18" viewBox="0 0 19 18" fill="none" xmlns="http://www.w3.org/2000/svg">
<path d="M2.05878 3C2.61106 3 3.05878 2.55228 3.05878 2C3.05878 1.44772 2.61106 1 2.05878 1C1.50649 1 1.05878 1.44772 1.05878 2C1.05878 2.55228 1.50649 3 2.05878 3Z" stroke="white" stroke-width="2" stroke-linecap="round" stroke-linejoin="round"/>
<path d="M9.05878 3C9.61106 3 10.0588 2.55228 10.0588 2C10.0588 1.44772 9.61106 1 9.05878 1C8.50649 1 8.05878 1.44772 8.05878 2C8.05878 2.55228 8.50649 3 9.05878 3Z" stroke="white" stroke-width="2" stroke-linecap="round" stroke-linejoin="round"/>
<path d="M16.0588 3C16.6111 3 17.0588 2.55228 17.0588 2C17.0588 1.44772 16.6111 1 16.0588 1C15.5065 1 15.0588 1.44772 15.0588 2C15.0588 2.55228 15.5065 3 16.0588 3Z" stroke="white" stroke-width="2" stroke-linecap="round" stroke-linejoin="round"/>
<path d="M2.05878 10C2.61106 10 3.05878 9.55228 3.05878 9C3.05878 8.44772 2.61106 8 2.05878 8C1.50649 8 1.05878 8.44772 1.05878 9C1.05878 9.55228 1.50649 10 2.05878 10Z" stroke="white" stroke-width="2" stroke-linecap="round" stroke-linejoin="round"/>
<path d="M9.05878 10C9.61106 10 10.0588 9.55228 10.0588 9C10.0588 8.44772 9.61106 8 9.05878 8C8.50649 8 8.05878 8.44772 8.05878 9C8.05878 9.55228 8.50649 10 9.05878 10Z" stroke="white" stroke-width="2" stroke-linecap="round" stroke-linejoin="round"/>
<path d="M16.0588 10C16.6111 10 17.0588 9.55228 17.0588 9C17.0588 8.44772 16.6111 8 16.0588 8C15.5065 8 15.0588 8.44772 15.0588 9C15.0588 9.55228 15.5065 10 16.0588 10Z" stroke="white" stroke-width="2" stroke-linecap="round" stroke-linejoin="round"/>
<path d="M2.05878 17C2.61106 17 3.05878 16.5523 3.05878 16C3.05878 15.4477 2.61106 15 2.05878 15C1.50649 15 1.05878 15.4477 1.05878 16C1.05878 16.5523 1.50649 17 2.05878 17Z" stroke="white" stroke-width="2" stroke-linecap="round" stroke-linejoin="round"/>
<path d="M9.05878 17C9.61106 17 10.0588 16.5523 10.0588 16C10.0588 15.4477 9.61106 15 9.05878 15C8.50649 15 8.05878 15.4477 8.05878 16C8.05878 16.5523 8.50649 17 9.05878 17Z" stroke="white" stroke-width="2" stroke-linecap="round" stroke-linejoin="round"/>
<path d="M16.0588 17C16.6111 17 17.0588 16.5523 17.0588 16C17.0588 15.4477 16.6111 15 16.0588 15C15.5065 15 15.0588 15.4477 15.0588 16C15.0588 16.5523 15.5065 17 16.0588 17Z" stroke="white" stroke-width="2" stroke-linecap="round" stroke-linejoin="round"/>
</svg>
