<svg width="18" height="18" viewBox="0 0 18 18" fill="none" xmlns="http://www.w3.org/2000/svg">
<path d="M11 4H17M14 1V7M2 1H6C6.55228 1 7 1.44772 7 2V6C7 6.55228 6.55228 7 6 7H2C1.44772 7 1 6.55228 1 6V2C1 1.44772 1.44772 1 2 1ZM2 11H6C6.55228 11 7 11.4477 7 12V16C7 16.5523 6.55228 17 6 17H2C1.44772 17 1 16.5523 1 16V12C1 11.4477 1.44772 11 2 11ZM12 11H16C16.5523 11 17 11.4477 17 12V16C17 16.5523 16.5523 17 16 17H12C11.4477 17 11 16.5523 11 16V12C11 11.4477 11.4477 11 12 11Z" stroke="white" stroke-width="2" stroke-linecap="round" stroke-linejoin="round"/>
</svg>
