<svg width="19" height="14" viewBox="0 0 19 14" fill="none" xmlns="http://www.w3.org/2000/svg">
<path d="M7.49999 11.1666C7.49999 12.0871 6.7538 12.8333 5.83332 12.8333C4.91285 12.8333 4.16666 12.0871 4.16666 11.1666M7.49999 11.1666C7.49999 10.2462 6.7538 9.49996 5.83332 9.49996C4.91285 9.49996 4.16666 10.2462 4.16666 11.1666M7.49999 11.1666H12.5M4.16666 11.1666H2.49999V7.83329M15.8333 11.1666C15.8333 12.0871 15.0871 12.8333 14.1667 12.8333C13.2462 12.8333 12.5 12.0871 12.5 11.1666M15.8333 11.1666C15.8333 10.2462 15.0871 9.49996 14.1667 9.49996C13.2462 9.49996 12.5 10.2462 12.5 11.1666M15.8333 11.1666H17.5V6.16663M1.66666 1.16663H10.8333V11.1666M17.5 6.16663H10.8333M17.5 6.16663L15 1.99996H10.8333M2.49999 4.49996H5.83332" stroke="white" stroke-opacity="0.6" stroke-width="1.5" stroke-linecap="round" stroke-linejoin="round"/>
</svg>
