<svg width="18" height="18" viewBox="0 0 18 18" fill="none" xmlns="http://www.w3.org/2000/svg">
<path d="M3 1V3M3 8V17M9 1V11M9 16V17M15 1V2M15 8V17M2 3H4C4.55228 3 5 3.44772 5 4V7C5 7.55228 4.55228 8 4 8H2C1.44772 8 1 7.55228 1 7V4C1 3.44772 1.44772 3 2 3ZM8 11H10C10.5523 11 11 11.4477 11 12V15C11 15.5523 10.5523 16 10 16H8C7.44772 16 7 15.5523 7 15V12C7 11.4477 7.44772 11 8 11ZM14 2H16C16.5523 2 17 2.44772 17 3V7C17 7.55228 16.5523 8 16 8H14C13.4477 8 13 7.55228 13 7V3C13 2.44772 13.4477 2 14 2Z" stroke="white" stroke-width="1.5" stroke-linecap="round" stroke-linejoin="round"/>
</svg>
