<svg width="18" height="18" viewBox="0 0 18 18" fill="none" xmlns="http://www.w3.org/2000/svg">
<path d="M2.931 3.93597L4.206 8.18497M9.813 13.794L14.064 15.069M8.68301 9.31698L14.442 3.55798M4 2.5C4 3.32843 3.32843 4 2.5 4C1.67157 4 1 3.32843 1 2.5C1 1.67157 1.67157 1 2.5 1C3.32843 1 4 1.67157 4 2.5ZM17 2.5C17 3.32843 16.3284 4 15.5 4C14.6716 4 14 3.32843 14 2.5C14 1.67157 14.6716 1 15.5 1C16.3284 1 17 1.67157 17 2.5ZM17 15.5C17 16.3284 16.3284 17 15.5 17C14.6716 17 14 16.3284 14 15.5C14 14.6716 14.6716 14 15.5 14C16.3284 14 17 14.6716 17 15.5ZM10 12.5C10 14.9853 7.98528 17 5.5 17C3.01472 17 1 14.9853 1 12.5C1 10.0147 3.01472 8 5.5 8C7.98528 8 10 10.0147 10 12.5Z" stroke="#798490" stroke-width="1.5" stroke-linecap="round" stroke-linejoin="round"/>
</svg>
