<svg width="36" height="40" viewBox="0 0 36 40" fill="none" xmlns="http://www.w3.org/2000/svg">
<path d="M34.6667 10.625V29.375L26.3334 34.0625M34.6667 10.625L26.3334 5.9375M34.6667 10.625L18 20M26.3334 34.0625L18 38.75M26.3334 34.0625V24.1667L34.6667 20M18 38.75L9.66671 34.0625M18 38.75V20M9.66671 34.0625L1.33337 29.375V10.625M9.66671 34.0625V24.1667L1.33337 20M1.33337 10.625L9.66671 5.9375M1.33337 10.625L18 20M9.66671 5.9375L18 1.25L26.3334 5.9375M9.66671 5.9375L18 10.625L26.3334 5.9375" stroke="white" stroke-width="2" stroke-linecap="round" stroke-linejoin="round"/>
</svg>
