<svg width="18" height="18" viewBox="0 0 18 18" fill="none" xmlns="http://www.w3.org/2000/svg">
<path d="M17.5 9.16211C17.5 13.8565 13.6944 17.6621 9 17.6621C4.30558 17.6621 0.5 13.8565 0.5 9.16211C0.5 4.46769 4.30558 0.662109 9 0.662109C13.6944 0.662109 17.5 4.46769 17.5 9.16211Z" fill="#FF4000"/>
<path d="M9 12.3496C10.7604 12.3496 12.1875 10.9225 12.1875 9.16211C12.1875 7.4017 10.7604 5.97461 9 5.97461C7.23959 5.97461 5.8125 7.4017 5.8125 9.16211C5.8125 10.9225 7.23959 12.3496 9 12.3496Z" fill="#FF4000"/>
<path d="M9.70833 8.45378L8.29167 9.87044L9.70833 8.45378Z" fill="#FF4000"/>
<path d="M8.29167 8.45378L9.70833 9.87044M9.70833 8.45378L8.29167 9.87044M17.5 9.16211C17.5 13.8565 13.6944 17.6621 9 17.6621C4.30558 17.6621 0.5 13.8565 0.5 9.16211C0.5 4.46769 4.30558 0.662109 9 0.662109C13.6944 0.662109 17.5 4.46769 17.5 9.16211ZM12.1875 9.16211C12.1875 10.9225 10.7604 12.3496 9 12.3496C7.23959 12.3496 5.8125 10.9225 5.8125 9.16211C5.8125 7.4017 7.23959 5.97461 9 5.97461C10.7604 5.97461 12.1875 7.4017 12.1875 9.16211Z" stroke="white" stroke-width="0.6" stroke-linecap="round" stroke-linejoin="round"/>
</svg>
